<svg width="256" height="256" viewBox="0 0 256 256" xmlns="http://www.w3.org/2000/svg">
  <!-- Fondo blanco para visibilidad (opcional) -->
  <rect width="256" height="256" fill="none" />

  <!-- Cuadrado Perfecto Centrado -->
  <rect x="48" y="48" width="160" height="160" fill="none" stroke="#ecfdf5" stroke-width="4" />

  <!-- Grupo de Letras Escalado y Centrado -->
  <g transform="translate(69, 85) scale(1.6)">
    <!-- Letra S -->
    <path fill="#2d2f3b" d="M 35.9 35.7 C 35.9 47.2 26.8 52.6 17.1 52.6 C 7.4 52.6 0 47 0 47 L 5.4 36.5 C 8.7 39.9 14.1 41.6 17.1 41.6 C 20.1 41.6 22.6 39.3 22.6 36.9 C 22.6 28.1 2 33.6 2 16.4 C 2 5.3 9.9 0 18.8 0 C 27.4 0 26.5 0.7 26.5 0.7 L 23.8 10.9 C 23.8 10.9 24.6 10.8 20.7 10.8 C 17.8 10.8 15.2 11.9 15.2 15.1 C 15.2 22.5 35.9 17.7 35.9 35.7 Z" />
    
    <!-- Punto flotante de la S -->
    <circle fill="#1bbb99" cx="34" cy="9" r="6" />

    <!-- Letra t (Movida a la derecha) -->
    <g transform="translate(45, 0)">
      <path fill="#2d2f3b" d="M 21.7 42.7 L 21.7 52.5 C 14.8 52.5 4 51 4 39.2 L 4 27.7 L 0.3 27.7 L 0.3 17.4 L 4 17.4 L 4 7.2 L 15.8 7.2 L 15.8 37.2 C 15.8 39.2 16.9 42.7 21.7 42.7 Z" />
      <!-- Punto de la t -->
      <circle fill="#1bbb99" cx="24" cy="24" r="6" />
    </g>
  </g>
</svg>
